<?xml version="1.0" encoding="utf-8"?>
<!-- Generator: Adobe Illustrator 23.0.0, SVG Export Plug-In . SVG Version: 6.00 Build 0)  -->
<svg version="1.1" xmlns="http://www.w3.org/2000/svg" xmlns:xlink="http://www.w3.org/1999/xlink" x="0px" y="0px"
	 viewBox="0 0 250 250" style="enable-background:new 0 0 250 250;" xml:space="preserve">
<style type="text/css">
	.st0{opacity:0.8;}
	.st1{clip-path:url(#SVGID_4_);}
	.st2{fill:#C5C5C5;}
	.st3{opacity:0.3;}
	.st4{fill:#D9D9D9;}
	.st5{fill:none;stroke:#9B9B9B;stroke-width:5;stroke-miterlimit:10;}
	.st6{fill:none;stroke:#585757;stroke-width:4;stroke-miterlimit:10;}
	.st7{fill:#9B9B9B;}
	.st8{fill:#6F6F6E;}
	.st9{fill:#FFFFFF;stroke:#6F6F6E;stroke-width:3;stroke-miterlimit:10;}
	.st10{fill:none;}
	.st11{opacity:0.3;fill:#B1B1B0;}
	.st12{fill:#F6F6F6;}
	.st13{fill:#585757;}
	.st14{fill:none;stroke:#000000;stroke-width:10;stroke-miterlimit:10;}
	.st15{fill:none;stroke:#6F6F6E;stroke-width:3;stroke-linecap:round;stroke-linejoin:round;stroke-miterlimit:10;}
	.st16{opacity:0.2;}
	.st17{fill:#FFFFFF;}
	.st18{opacity:0.8;fill:#3E3E3D;}
	.st19{opacity:0.8;fill:#B1B1B0;}
	.st20{fill:#6F6F6E;stroke:#FFFFFF;stroke-width:3;stroke-miterlimit:10;}
	.st21{fill:#3E3E3D;}
	.st22{clip-path:url(#SVGID_28_);}
	.st23{clip-path:url(#SVGID_32_);}
	.st24{clip-path:url(#SVGID_34_);}
	.st25{clip-path:url(#SVGID_40_);}
	.st26{fill:none;stroke:#6F6F6E;stroke-width:3;stroke-miterlimit:10;}
	.st27{fill:#868685;}
	.st28{fill:#B1B1B0;}
	.st29{fill:none;stroke:#5F6060;stroke-width:3;stroke-linecap:round;stroke-linejoin:round;stroke-miterlimit:10;}
</style>
<g id="Capa_1">
</g>
<g id="Capa_3">
</g>
<g id="Capa_2">
	<g>
		<path class="st29" d="M95.51,187.54c-2.5,0.69-2.93,4.43-0.64,6.6c1.43,1.36,3.27,1.72,5.28,1.71
			c15.57-0.06,31.15-0.03,46.72-0.03c3.79,0,4.59,0.8,4.64,4.64c0.01,0.44,0,0.88,0,1.33c0,5.48-1.42,6.53-6.96,5.68
			c-3.4-0.52-6.86-0.94-10.28,0.25c-0.79,0.27-1.75,0.04-2.64,0.04c-10.49,0-20.99,0.12-31.48-0.07c-3.19-0.06-4.96,1.01-5.63,4.05"
			/>
		<path class="st29" d="M152.83,220.01c-0.62,2.72-2.61,3.01-4.97,3.01c-15.57-0.05-31.15-0.02-46.72-0.02c-3.9,0-5.3,0.88-5.3,3.31
			c0,2.36,2.23,3.97,5.63,3.97c12.37,0.02,24.74,0.15,37.11-0.08c3.42-0.06,6.55,1.52,9.94,1.08"/>
		<path class="st29" d="M93.52,211.56c3.59,3.48,3.59,3.48,9.61,3.48c14.25,0,28.5,0.08,42.74-0.06c3.48-0.03,6.2,0.39,6.97,4.37
			c0.15,0.78,0.64,0.2,0.98,0.17"/>
		<path class="st29" d="M145.54,231.61c-1.46,5.55-7.92,10.6-13.58,10.6c-3.76,0-7.51,0.08-11.26-0.03
			c-2.14-0.06-4.11,0.31-5.96,1.36"/>
		<path class="st29" d="M129.47,0c-0.39,6.74-0.77,13.47-1.16,20.21"/>
		<path class="st29" d="M214.79,92.11c-6.35,0.02-12.58-1.23-18.89-1.66"/>
		<path class="st29" d="M69,134.52c-4.42,1.99-8.91,3.83-13.2,6.06c-1.17,0.61-2.16,0.88-3.36,0.9"/>
		<path class="st29" d="M194.91,141.48c-3.7,0.34-6.1-2.62-9.26-3.71c-2.64-0.91-5.1-2.37-7.64-3.58"/>
		<path class="st29" d="M51.44,90.46c-5.41,0.55-10.82,1.1-16.24,1.66"/>
		<path class="st29" d="M54.76,30.15c3.98,3.76,7.95,7.51,11.93,11.27"/>
		<path class="st29" d="M192.26,30.48c-3.87,3.64-7.73,7.29-11.6,10.93"/>
		<path class="st29" d="M112.41,242.54c1.22,0.39,2.05,1.15,2.67,2.31c1.9,3.51,4.89,5.26,8.92,5.15"/>
		<path class="st29" d="M124.34,28.83c-5.39,1.03-10.89,1.19-16.25,2.6C87.72,36.8,74.15,49.45,66.25,68.88
			c-3.4,8.36-4.27,16.91-3.4,25.54c1.23,12.23,5.26,23.72,12.5,33.78c6.09,8.46,10.92,17.34,12.23,27.86
			c0.66,5.29,1.65,10.55,1.61,15.91c-0.02,2.99,1.11,5.41,2.98,7.64c1.52,1.8,3.36,2.34,5.65,2.33c17.78-0.06,35.56-0.03,53.35-0.03
			c4.89,0,7.35-2.7,7.66-7.61c0.83-13.19,2.4-26.21,8.85-38.14c1.81-3.34,4.17-6.22,6.39-9.22c6.89-9.3,10.52-19.91,11.78-31.19
			c1.77-15.81-2.39-30.61-11.66-43.27c-9.22-12.59-22.58-19.48-37.93-22.32c-3.83-0.71-7.68-1.37-11.59-1.34"/>
	</g>
</g>
</svg>
