<?xml version="1.0" encoding="utf-8"?>
<!-- Generator: Adobe Illustrator 23.0.0, SVG Export Plug-In . SVG Version: 6.00 Build 0)  -->
<svg version="1.1" xmlns="http://www.w3.org/2000/svg" xmlns:xlink="http://www.w3.org/1999/xlink" x="0px" y="0px"
	 viewBox="0 0 250 250" style="enable-background:new 0 0 250 250;" xml:space="preserve">
<style type="text/css">
	.st0{opacity:0.8;}
	.st1{clip-path:url(#SVGID_4_);}
	.st2{fill:#C5C5C5;}
	.st3{opacity:0.3;}
	.st4{fill:#D9D9D9;}
	.st5{fill:none;stroke:#9B9B9B;stroke-width:5;stroke-miterlimit:10;}
	.st6{fill:none;stroke:#585757;stroke-width:4;stroke-miterlimit:10;}
	.st7{fill:#9B9B9B;}
	.st8{fill:#6F6F6E;}
	.st9{fill:#FFFFFF;stroke:#6F6F6E;stroke-width:3;stroke-miterlimit:10;}
	.st10{fill:none;}
	.st11{opacity:0.3;fill:#B1B1B0;}
	.st12{fill:#F6F6F6;}
	.st13{fill:#585757;}
	.st14{fill:none;stroke:#000000;stroke-width:10;stroke-miterlimit:10;}
	.st15{fill:none;stroke:#6F6F6E;stroke-width:3;stroke-linecap:round;stroke-linejoin:round;stroke-miterlimit:10;}
	.st16{opacity:0.2;}
	.st17{fill:#FFFFFF;}
	.st18{opacity:0.8;fill:#3E3E3D;}
	.st19{opacity:0.8;fill:#B1B1B0;}
	.st20{fill:#6F6F6E;stroke:#FFFFFF;stroke-width:3;stroke-miterlimit:10;}
	.st21{fill:#3E3E3D;}
	.st22{clip-path:url(#SVGID_28_);}
	.st23{clip-path:url(#SVGID_32_);}
	.st24{clip-path:url(#SVGID_34_);}
	.st25{clip-path:url(#SVGID_40_);}
	.st26{fill:none;stroke:#6F6F6E;stroke-width:3;stroke-miterlimit:10;}
	.st27{fill:#868685;}
	.st28{fill:#B1B1B0;}
	.st29{fill:none;stroke:#5F6060;stroke-width:3;stroke-linecap:round;stroke-linejoin:round;stroke-miterlimit:10;}
</style>
<g id="Capa_1">
</g>
<g id="Capa_3">
</g>
<g id="Capa_2">
	<g id="Bnl2KR.tif_1_">
		<g>
			<path class="st29" d="M98.71,76.76c2.15-1.99,4.2-3.88,6.23-5.76c2.42,2.41,4.72,4.7,7.17,7.14c-1.25,1.43-2.65,3.03-4.99,5.7
				c3.97,3.54,7.93,7.07,11.89,10.59c0.37,0.33,0.96,0.93,1.16,0.83c5.9-2.98,6.63,3.44,9.91,5.04c0.03,2.53-6.1,4.35-0.22,7.16
				c1.36-1.61,2.74-3.25,4.18-4.95c-3.36-7.75-2.98-9.81,3.17-15.97c8.59-8.6,17.17-17.21,25.8-25.77
				c5.39-5.34,8.57-5.76,15.28-1.93c1.36-1.73,2.78-3.55,4.69-5.99c-3.78-3.6-8.1-7.73-12.43-11.85c-2.82-2.68-4.58-5.72-1.18-8.96
				c3.24-3.08,6.07-1.11,8.57,1.54c1.14,1.21,2.26,2.47,3.54,3.51c2.26,1.84,4.05,2.1,6.04-0.88c7.34-11,19.65-10.91,27-0.15
				c0.81,1.19,2.7,2.05,4.21,2.28c2.42,0.38,4.94,0.1,7.74,0.1c0,3.43,0,6.5,0,9.8c-0.93,0.16-1.73,0.47-2.49,0.4
				c-4.99-0.47-9.06,0.25-12.01,5.27c-1.42,2.41-4.96,3.58-7.05,4.98c8.77,8.71,18.02,17.88,27.46,27.25c4.9-3.07,6.08-2.68,12.43,4
				c3.21,3.37,3.07,6.37-0.37,9.61c0.94,1.14,1.84,2.25,3.53,4.31c-3.07,2-5.85,4.12-8.9,5.7c-2.14,1.11-5.34,0.79-6.89,2.31
				c-15.01,14.65-29.79,29.54-44.57,44.43c-1.1,1.11-2.68,3.04-2.36,4.07c1.87,5.99-2.96,7.94-5.84,11.11
				c-19.84-19.91-39.53-39.67-59.21-59.42c-0.66,0.2-1.31,0.41-1.97,0.61c0,1.37-0.57,3.18,0.09,4.05
				c5.59,7.36,5.48,11.26-0.97,17.72c-13.41,13.43-26.83,26.86-40.26,40.27c-6.49,6.48-11.54,6.5-18,0.13
				c-3.79-3.74-7.62-7.45-11.28-11.33c-4.76-5.05-4.77-10.47,0.15-15.44c14.18-14.31,28.42-28.56,42.74-42.74
				c5.56-5.51,9.55-5.05,17.5,2.41c-4.15-4.12-8.3-8.24-12.44-12.35c0.46-0.6,0.91-1.2,1.37-1.79c-1.72,1.46-3.44,2.92-4.97,4.22
				c-2.48-2.26-4.79-4.38-7.46-6.82c2.18-2.29,4.09-4.29,6.14-6.44c-1.77-3.74-8.5-6.65-3.38-11.65
				C92.37,68.28,95.14,74.48,98.71,76.76z M185.77,66.4c3.8,6.59,3.38,9.64-2.05,15.1c-8.45,8.5-17.09,16.83-25.37,25.5
				c-4.89,5.12-9.85,7.86-16.34,3.2c-1.84,1.69-3.4,3.14-4.58,4.22c6.11,6.29,11.94,12.28,17.94,18.46
				c1.57-1.54,3.22-3.15,4.81-4.71c-4.13-6.56-3.87-9.43,1.42-14.76c8.79-8.87,17.65-17.68,26.49-26.5
				c6.16-6.15,8.23-6.49,15.02-2.98c2.03-1.47,3.89-2.81,5.58-4.04c-6.47-6.41-12.34-12.24-18.2-18.05
				C189.13,63.16,187.59,64.65,185.77,66.4z M211.28,92.12c3.87,6.25,3.62,9.28-1.39,14.35c-9,9.12-18.08,18.17-27.17,27.2
				c-5.6,5.57-8.29,5.92-14.89,2.4c-1.91,1.5-3.73,2.93-5.05,3.97c3.79,3.78,7.14,7.12,10.11,10.08
				c17.56-17.57,35.29-35.31,52.59-52.61c-3.04-3.13-6.31-6.5-9.87-10.17C214.34,88.75,212.91,90.33,211.28,92.12z M206.76,44.27
				c-0.03-0.71-0.07-1.41-0.1-2.12c-2.02-1.22-4.26-3.63-5.99-3.31c-1.77,0.33-3.99,3.24-4.19,5.22c-0.13,1.3,3.01,4.15,4.6,4.09
				C203.02,48.07,204.87,45.67,206.76,44.27z"/>
			<path class="st29" d="M22.7,191.52c7.42-7.52,14.88-15.09,22.33-22.64c3.27,3.43,6.52,6.82,9.8,10.26
				c-7.32,7.14-15.03,14.66-22.76,22.2C29.17,198.3,25.92,194.9,22.7,191.52z"/>
			<path class="st29" d="M2.04,220.48c5.91-7.5,11.82-15,18.24-23.15c2.1,2.54,3.51,4.25,5.71,6.92
				c-7.26,5.78-14.79,11.78-22.33,17.78C3.13,221.51,2.58,220.99,2.04,220.48z"/>
			<path class="st29" d="M185.77,66.4c1.81-1.75,3.36-3.24,4.73-4.56c5.86,5.81,11.73,11.63,18.2,18.05
				c-1.69,1.23-3.55,2.57-5.58,4.04c-6.8-3.51-8.86-3.17-15.02,2.98c-8.84,8.82-17.7,17.63-26.49,26.5
				c-5.29,5.33-5.55,8.21-1.42,14.76c-1.59,1.55-3.23,3.17-4.81,4.71c-6-6.17-11.83-12.17-17.94-18.46
				c1.18-1.08,2.74-2.53,4.58-4.22c6.49,4.66,11.45,1.91,16.34-3.2c8.28-8.67,16.91-17,25.37-25.5
				C189.15,76.04,189.57,72.99,185.77,66.4z"/>
			<path class="st29" d="M211.28,92.12c1.62-1.79,3.06-3.38,4.33-4.78c3.56,3.67,6.84,7.04,9.87,10.17
				c-17.3,17.3-35.03,35.04-52.59,52.61c-2.97-2.96-6.31-6.29-10.11-10.08c1.33-1.04,3.14-2.47,5.05-3.97
				c6.6,3.52,9.29,3.17,14.89-2.4c9.09-9.04,18.16-18.08,27.17-27.2C214.9,101.4,215.15,98.38,211.28,92.12z"/>
			<path class="st29" d="M206.76,44.27c-1.89,1.4-3.74,3.8-5.68,3.87c-1.59,0.06-4.74-2.79-4.6-4.09c0.2-1.97,2.43-4.89,4.19-5.22
				c1.74-0.32,3.97,2.1,5.99,3.31C206.69,42.86,206.73,43.57,206.76,44.27z"/>
		</g>
	</g>
</g>
</svg>
