<?xml version="1.0" encoding="utf-8"?>
<!-- Generator: Adobe Illustrator 23.0.0, SVG Export Plug-In . SVG Version: 6.00 Build 0)  -->
<svg version="1.1" xmlns="http://www.w3.org/2000/svg" xmlns:xlink="http://www.w3.org/1999/xlink" x="0px" y="0px"
	 viewBox="0 0 250 250" style="enable-background:new 0 0 250 250;" xml:space="preserve">
<style type="text/css">
	.st0{opacity:0.8;}
	.st1{clip-path:url(#SVGID_4_);}
	.st2{fill:#C5C5C5;}
	.st3{opacity:0.3;}
	.st4{fill:#D9D9D9;}
	.st5{fill:none;stroke:#9B9B9B;stroke-width:5;stroke-miterlimit:10;}
	.st6{fill:none;stroke:#585757;stroke-width:4;stroke-miterlimit:10;}
	.st7{fill:#9B9B9B;}
	.st8{fill:#6F6F6E;}
	.st9{fill:#FFFFFF;stroke:#6F6F6E;stroke-width:3;stroke-miterlimit:10;}
	.st10{fill:none;}
	.st11{opacity:0.3;fill:#B1B1B0;}
	.st12{fill:#F6F6F6;}
	.st13{fill:#585757;}
	.st14{fill:none;stroke:#000000;stroke-width:10;stroke-miterlimit:10;}
	.st15{fill:none;stroke:#6F6F6E;stroke-width:3;stroke-linecap:round;stroke-linejoin:round;stroke-miterlimit:10;}
	.st16{opacity:0.2;}
	.st17{fill:#FFFFFF;}
	.st18{opacity:0.8;fill:#3E3E3D;}
	.st19{opacity:0.8;fill:#B1B1B0;}
	.st20{fill:#6F6F6E;stroke:#FFFFFF;stroke-width:3;stroke-miterlimit:10;}
	.st21{fill:#3E3E3D;}
	.st22{clip-path:url(#SVGID_28_);}
	.st23{clip-path:url(#SVGID_32_);}
	.st24{clip-path:url(#SVGID_34_);}
	.st25{clip-path:url(#SVGID_40_);}
	.st26{fill:none;stroke:#6F6F6E;stroke-width:3;stroke-miterlimit:10;}
	.st27{fill:#868685;}
	.st28{fill:#B1B1B0;}
	.st29{fill:none;stroke:#5F6060;stroke-width:3;stroke-linecap:round;stroke-linejoin:round;stroke-miterlimit:10;}
</style>
<g id="Capa_1">
</g>
<g id="Capa_3">
</g>
<g id="Capa_2">
	<g>
		<path class="st29" d="M101.81,56.7c-0.42-1.05-0.25-2.15-0.29-3.4c-0.55,0.19-1.07,0.08-1.7,0.22c-0.95,0.22-1.06,0.66-0.95,1.35
			c0.22,1.38-0.47,2.09-1.7,2.23c-1.88,0.22-3.65,1.19-5.62,0.87c-0.69-0.11-1,0.24-1.15,0.97c-0.39,1.85-1.97,2.33-3.49,2.35
			c-5.8,0.1-11.62,0.29-17.41-0.03c-5.67-0.31-11.33-0.02-17-0.23c-1.12-0.04-1.51,0.27-1.43,1.43c0.22,3.05-0.46,6.07-0.27,9.13
			c0.04,0.67,0.01,1.15,0.82,1.6c1.69,0.94,3.19,2.23,4.82,3.3c0.96,0.63,1.69,0.99,0.61,2.31c-0.75,0.92-0.47,2.38-0.6,3.6
			c-0.06,0.55-0.04,1.08-0.58,1.4c-0.75,0.45-0.82,1.33-1.26,1.97"/>
		<path class="st29" d="M236.35,152.48c0.33-1.15,0.59-2.3,1.81-2.97c1.41-0.77,2.92-0.48,4.19-0.13c0.76,0.21,1.51,0.38,2.28,0.42
			c1.09,0.06,2.21-0.12,3.3,0.47c0.31,2.79-0.16,5.59-0.27,8.55c-2.28-0.17-4.46,0.13-6.69-0.25c-2.44-0.42-4.84,0.13-7.16,1.06
			c-3.2,1.29-6.42,2.54-9.69,3.64c-2.44,0.82-4.93,1.54-7.28,2.58c-3.75,1.65-7.73,2.67-11.52,4.2c-0.58,0.23-0.99,0.64-0.86,1.4
			c0.09,0.5,0.02,1.03,0.02,1.51c-1.54,0.58-2.95-0.35-4.29-0.06c-0.35,0.44-0.25,0.87-0.18,1.21c0.37,1.85-0.75,3.51-0.66,5.34
			c0.02,0.45-0.17,1.33-1.18,1.59c-2.03,0.54-1.83,2.74-2.67,4.17c-0.11,0.19,0.12,0.52-0.15,0.69c-1.61,1.03-2.12,2.8-2.95,4.35
			c-0.07,0.14-0.25,0.22-0.38,0.32c-0.97-0.18-1.83-1.19-2.68-0.81c-0.96,0.43-1.92,1.15-2.26,2.42c0.22,0.84,0.82,1.53,1.54,2.14
			c-0.66,0.71-1.61,0.84-2.41,1.26c-0.52,0.27-1.36,0.35-1.36,1c0.01,2.03-1.63,2.64-2.84,3.66c-0.33,0.27-0.26,0.55-0.06,1
			c0.25,0.56,0.07,1.34-0.79,1.36c-0.75,0.01-0.95,0.42-1.13,1c-0.42,1.32-1.53,1.95-2.66,2.52c-0.44,0.22-0.66,0.43-0.74,0.99
			c-0.11,0.73-0.54,1.4-0.79,2.12c-0.19,0.52-0.32,1.07-0.99,1.11c-0.88,0.06-1.62,0.35-2.11,1.13c-0.21,0.34-0.65,0.21-0.82,0.12
			c-0.68-0.38-1.44-0.16-2.15-0.31c-0.05-0.22-0.1-0.36-0.11-0.51c-0.03-0.34,0.11-0.75-0.42-0.85c-0.47-0.08-0.71,0.2-0.84,0.57
			c-0.35,1.02-0.63,2.07-1,3.08c-0.28,0.76-0.43,1.36-1.7,0.92c-1.93-0.67-4.05-0.79-6.02-1.46c-0.42-0.14-0.94-0.02-1.34-0.02
			c-0.62,3.25-1.61,6.23-2.88,9.13c-0.33,0.75-2.11,1.75-2.94,1.53c-2.74-0.73-5.52-0.57-8.29-0.51c-1.35,0.03-1.33-1.08-1.47-1.73
			c-0.16-0.74-0.63-1.09-1.06-1.06c-1.51,0.11-2.99-0.6-4.66-0.22c0.2,0.93,0.48,1.8,0.25,2.62c0.43,0.63,1.29,0.11,1.54,1.04
			c-0.79,1.54-1.86,3.25-2.56,5.1c-0.49,1.29-1.06,1.46-2.16,0.97c-0.27-0.12-0.49-0.4-0.92-0.26c-0.02,0.01-0.14,0.04-0.19,0.11
			c-1.23,1.78-1.12,1.54-3.12,0.62c-2.44-1.12-4.68-2.54-6.99-3.85c-0.5-0.29-0.97-0.43-1.04-1.26c-0.12-1.39-1.31-1.54-2.47-1.55
			c-2.43-0.02-4.5-1.3-6.72-1.78c-0.07-0.68,0.47-0.88,0.57-1.45c-2.66-0.56-5.01-2.24-7.89-2.1c-0.56,0.03-0.95-0.02-1.32-0.67
			c-0.39-0.68-1.35-0.94-1.83-1.73c-0.74,0.7-1.57,0.55-2.33,0.72"/>
		<path class="st29" d="M195.77,60.78c0.21-1.22-0.39-1.82-1.55-1.96c-0.14-0.02-0.3,0.04-0.42-0.01c-0.83-0.32-1.74-1.21-2.48-0.76
			c-0.85,0.51-1.37,1.6-2.01,2.45c-0.47,0.63-0.66,1.44-1.84,1.35c-0.52-0.04-1.1,0.87-1.68,1.31c-0.49,0.37-1.01,0.68-1.59,1.07
			c-0.19-2.11-1.96-1.17-2.92-1.39c-2.56-0.59-5.23-0.71-7.91-1.03c-0.42-4.82,0.54-9.6,0.13-14.38c-2.26-0.71-4.61-0.18-6.87-0.9
			c-0.5-1.03,0.74-1.95,0.4-3.17c-2.67,0-5.3,0-8.06,0c0-0.88,0-1.64,0-2.45c-0.61-0.09-1.1-0.23-1.53,0.07
			c-0.25,0.18-0.54,0.19-0.7,0.11c-2.2-1.14-4.57-0.79-6.89-0.79c-0.73,0-0.71-0.53-0.99-0.84c0.15-0.64,1.18,0.05,1.11-0.74
			c-0.05-0.54,0.44-0.94,0.29-1.4c-0.22-0.69-0.78-0.37-1.21-0.28c-0.27-0.5,0.09-1.46-1.02-1.27c-0.04-0.3-0.37-0.46-0.3-0.85
			c0.09-0.47-0.07-0.83-0.68-0.86c-0.45-0.02-0.57-0.49-0.69-0.83c-0.21-0.62-0.23-1.36-1.14-1.41c-0.05,0-0.09-0.1-0.14-0.13
			c-0.55-0.29,0.56-1.14-0.42-1.26c-0.43-0.05-0.89-0.2-1.27-0.22c-0.66-0.04-1.1-0.76-1.39-0.7c-1.54,0.34-1.38-1.07-1.49-1.62
			c-0.49-2.41-1.15-4.81-1.18-7.29c-0.01-0.57-0.65-0.93-0.23-1.49c-1.28-0.53-2.24,0.31-3.44,0.02c0.1,3.53-0.96,6.64-2,9.74
			c-0.17,0.5-0.21,0.95-0.22,1.42c-0.04,2.07,0.1,4.15-0.49,6.32c-2.99,0-6.03,0-9.45,0c0.61,0.73,0.81,1.2,0.26,1.85
			c-1.35,1.61-2.56,3.35-3.82,5.03"/>
		<path class="st29" d="M196.05,61.06c1.54,0.53,2.22,0.43,3.06-0.72c0.3-0.41,0.74-0.37,1.11-0.86c1.13,1.81,2.11,3.46,2.07,5.66
			c-0.03,1.69,0.06,3.42,0.76,5.07c0.49,1.15,0.67,2.43,1.02,3.78c0.88,0,1.77-0.02,2.66,0.01c0.56,0.02,1.3-0.28,1.65,0.16
			c0.51,0.65,0.92,1.47,0.87,2.36c-0.11,2.25,0.04,4.49-0.2,6.75c-0.29,2.68-0.06,5.42-0.08,8.14c0,0.42,0.15,0.87-0.15,1.33
			c-2.23,0-4.48,0-6.77,0c-0.71,0.7-0.98,1.98-2.49,1.97c-0.45,0-1.07,0.82-0.47,1.75c1.87,0,3.84,0,5.87,0
			c-0.13,2.25-1.68,3.93-1.61,6.19c1.52,0.81,3.34,1.56,5.21,1.61c3.65,0.09,6.61,1.71,9.39,3.73c5.28,3.83,10.57,7.64,16,11.24
			c2.5,1.66,4.79,3.62,7.21,5.47c0.47-0.23,0.31-0.93,0.82-1.14c0.27,0.04,0.57,0.04,0.82,0.15c0.7,0.28,1.12,0.81,0.41,1.37
			c-1.39,1.08-1.06,2.54-1.11,3.96c-0.06,1.73-0.17,3.46-0.28,5.2c-0.06,0.94,0.13,1.85-0.23,2.83c-0.39,1.06-0.96,1.57-2.01,1.83
			c-1.23,0.3-2.12,1.27-3.23,1.81c-0.43,0.21-0.81,0.52-1.26,0.82c-0.36-1.12-1.42-1.83-1.15-3.08c0.07-0.3-0.23-0.46-0.54-0.41
			c-0.96,0.15-1.77-0.42-2.67-0.56"/>
		<path class="st29" d="M54.63,86.06c-0.59,0.94-1.4,0.72-2.09,0.25c-0.53-0.35-0.96-0.92-1.55-0.24c-0.48,0.54-0.05,1.13,0.14,1.67
			c0.16,0.46,0.87,0.69,0.31,1.44c-0.34,0.46-0.55,0.86-1.17,0.81c-0.86-0.06-0.92,0.36-0.88,1.12c0.06,0.96,0.22,1.83,0.89,2.52
			c0.56,0.57,0.62,1.28,0.24,1.81c-0.72,0.99-0.46,2.83-2.5,2.75c0.02,0.68,0.06,1.3-0.68,1.65c-0.64,0.3-0.66,1.06-0.26,1.49
			c0.61,0.66,0.53,1.34-0.05,1.68c-1.64,0.95-1.62,2.47-1.49,3.97c0.09,1.06-0.21,1.64-1.15,2.13c-1.39,0.73-2.76,1.67-4.13,2.24
			c-2.19,0.9-4.36,1.88-6.55,2.79c-1.3,0.54-2.37,1.45-3.35,2.41c-0.86,0.85-0.05,1.57,0.7,2.23c-0.6,0.42-0.72,0.92-0.75,1.54
			c-0.09,1.82-1.9,3.79-3.77,4.21"/>
		<path class="st29" d="M121.76,43.78c-1.21-0.02-2.37-0.05-3.54-0.63c-0.77-0.38-1.84,0-2.78,0.19c-1.9,0.37-3.83,0.65-5.75,0.85
			c-2.53,0.26-4.86,1.27-7.31,1.8c-1.26,0.27-2.57,0.76-3.92,0.33c-0.14,1.12-0.31,2.24-0.41,3.37c-0.07,0.76-0.05,1.45,1.13,1.03
			c0.34-0.12,1.06,0.14,0.84,0.94c-0.15,0.53,0.1,1.04,0.27,1.54"/>
		<path class="st29" d="M27.1,124.68c0.05,0.05,0.09,0.09,0.14,0.14c-1.39,0.74-1.68,2.68-3.41,3.12c0.29,0.77,0.29,1.5-0.22,2.24
			c-0.14,0.2-0.12,0.53-0.45,0.54c-2.39,0.06-2.73,2.33-3.72,3.71c-2.04,2.82-3.02,6.25-4.46,9.41c-0.81,1.77-1.41,3.6-2.63,5.15
			c-0.34,0.43-0.37,1.27-1.28,0.88c-0.02-0.01-0.7,0.21-0.68,0.66c0.06,1.84-1.28,3.28-1.41,5.06c-0.02,0.23-0.06,0.49,0.01,0.7
			c0.34,1.08,0.08,1.86-0.98,2.42c-0.47,0.24-0.15,0.91-0.37,1.41c-0.48,1.07-0.87,2.18-1.43,3.22c-0.17,0.31,0.04,0.83,0.08,1.27
			c-0.4,0.3-0.93,0.49-1.21,1c0.62,1.56-0.39,2.77-1.04,4.02c-0.29,0.56-0.93,0.93-1.37,1.42c-1.06,1.17-0.95,2.02,0.42,2.94
			c0.98,0.66,1.93,1.32,2.23,2.54c0.15,0.6,0.55,0.57,0.99,0.56c0.56-0.01,1.13,0,1.89,0c-0.15,0.7,0.17,1.31-0.22,1.81
			c-0.28,0.36-0.32,0.53,0.01,0.87c0.36,0.39,0.31,1.12,0.11,1.36c-0.93,1.1-0.19,2.6-1.05,3.71c-0.26,0.34,0.06,0.87,0.67,0.96
			c0.51,0.07,0.89-0.14,1.26-0.43"/>
		<path class="st29" d="M101.11,216.45c-0.06-0.93,0.63-1.73,0.31-2.75c-0.53-1.71-2.17-2.41-3.96-1.54
			c-1.25,0.61-1.27,0.61-1.39-0.7c-0.04-0.4-0.14-0.53-0.56-0.73c-4.75-2.29-9.48-4.64-14.19-7c-0.41-0.2-1.34-0.18-0.74-1.13
			c0.03-0.05-0.33-0.49-0.54-0.52c-0.92-0.14-1.6-0.54-1.97-1.42c-0.15-0.35-0.52-0.29-0.83-0.29c-1.46,0-2.94-0.47-4.36,0.28
			c-0.11,0.06-0.29,0.05-0.41,0c-1.49-0.6-3.07-0.61-4.54-0.54c-0.65-1.02,0.46-2.46-1.11-3.03c-0.33,0.41-0.6,0.84-0.96,1.18
			c-0.32,0.29-0.87,0.33-1.08,0c-0.49-0.78-1.13-0.97-1.99-1.01c-0.43-0.02-0.93-0.44-1.25-0.81c-0.71-0.81-1.53-1.48-2.52-2.11
			c-0.58,0.63-1.53,0.73-2.31,1.23c-0.72,0.47-1.45-0.1-1.72-0.96c-1.26,0.55-2.36,1-3.75,0.38c-0.85-0.38-1.42,0.61-1.79,1.35
			c-0.58,1.14-1.21,1.95-2.7,1.3c-0.35-0.15-0.93,0.22-1.55,0.38c0.23,0.96-0.27,1.65-0.96,2.25c-0.86,0.74-1.08,1.57-0.29,2.53
			c0.32,0.39,0.29,0.78-0.27,0.98c-1.27,0.43-3.72-0.18-4.57-1.21c-0.62,0.84-0.83,1.84-0.85,2.76c-0.02,0.77-0.44,1.04-0.91,1.24
			c-0.71,0.29-1.49,0.39-2.24,0.59c-1.13,0.31-1.24-0.82-1.83-1.27c-0.31,0.56-0.69,0.48-1.12,0.14c-2-1.54-4.05-2.99-6.27-4.29
			c-0.26,0.15-0.36,0.69-1.09,0.63c0.16-1.59-1.1-2.38-2.05-3.36c-1.11-1.15-2.22-2.3-3.64-3.11c-1.03-0.59-1.87-1.52-3.24-1.42
			c-0.46,0.03-1.6-1.99-1.53-2.63c0.06-0.56-0.04-0.93-0.39-1.44c-0.71-1.02-1.29-2.17-1.69-3.35c-0.33-0.99-0.65-1.22-1.6-0.72
			c-0.47,0.25-1.06,0.01-1.39-0.53c-0.35-0.56-0.13-0.9,0.42-1.12"/>
		<path class="st29" d="M229.61,136.19c0.56,0.3,0.93,0.9,0.94,1.41c0.03,1.18,0.73,1.3,1.59,1.25c0.75-0.04,0.98,0.25,1,0.99
			c0.05,1.97,0.89,3.88,0.43,5.9c-0.04,0.19,0.23,0.48,0.4,0.69c0.88,1.07,1.64,2.17,1.73,3.65c0.03,0.45,0.28,1.11,0.94,1.27"/>
		<path class="st29" d="M149.56,40.55c0.12,0.51-0.26,1.11,0.28,1.54"/>
		<path class="st29" d="M164.45,43.64c0,0.42,0,0.84,0,1.26"/>
		<path class="st29" d="M71.48,199.39c-0.51-0.16-0.53,0.3-0.7,0.56"/>
	</g>
</g>
</svg>
