<?xml version="1.0" encoding="utf-8"?>
<!-- Generator: Adobe Illustrator 23.0.0, SVG Export Plug-In . SVG Version: 6.00 Build 0)  -->
<svg version="1.1" xmlns="http://www.w3.org/2000/svg" xmlns:xlink="http://www.w3.org/1999/xlink" x="0px" y="0px"
	 viewBox="0 0 250 250" style="enable-background:new 0 0 250 250;" xml:space="preserve">
<style type="text/css">
	.st0{opacity:0.8;}
	.st1{clip-path:url(#SVGID_4_);}
	.st2{fill:#C5C5C5;}
	.st3{opacity:0.3;}
	.st4{fill:#D9D9D9;}
	.st5{fill:none;stroke:#9B9B9B;stroke-width:5;stroke-miterlimit:10;}
	.st6{fill:none;stroke:#585757;stroke-width:4;stroke-miterlimit:10;}
	.st7{fill:#9B9B9B;}
	.st8{fill:#6F6F6E;}
	.st9{fill:#FFFFFF;stroke:#6F6F6E;stroke-width:3;stroke-miterlimit:10;}
	.st10{fill:none;}
	.st11{opacity:0.3;fill:#B1B1B0;}
	.st12{fill:#F6F6F6;}
	.st13{fill:#585757;}
	.st14{fill:none;stroke:#000000;stroke-width:10;stroke-miterlimit:10;}
	.st15{fill:none;stroke:#6F6F6E;stroke-width:3;stroke-linecap:round;stroke-linejoin:round;stroke-miterlimit:10;}
	.st16{opacity:0.2;}
	.st17{fill:#FFFFFF;}
	.st18{opacity:0.8;fill:#3E3E3D;}
	.st19{opacity:0.8;fill:#B1B1B0;}
	.st20{fill:#6F6F6E;stroke:#FFFFFF;stroke-width:3;stroke-miterlimit:10;}
	.st21{fill:#3E3E3D;}
	.st22{clip-path:url(#SVGID_28_);}
	.st23{clip-path:url(#SVGID_32_);}
	.st24{clip-path:url(#SVGID_34_);}
	.st25{clip-path:url(#SVGID_40_);}
	.st26{fill:none;stroke:#6F6F6E;stroke-width:3;stroke-miterlimit:10;}
	.st27{fill:#868685;}
	.st28{fill:#B1B1B0;}
	.st29{fill:none;stroke:#5F6060;stroke-width:3;stroke-linecap:round;stroke-linejoin:round;stroke-miterlimit:10;}
</style>
<g id="Capa_1">
</g>
<g id="Capa_3">
</g>
<g id="Capa_2">
	<g>
		<path class="st29" d="M173.58,51.4c-2.41-1.2-4.14-0.41-6,1.45c-48.65,48.74-97.34,97.42-146.04,146.11
			c-5.31,5.31-5.23,10.62,0.01,15.9c4.62,4.66,9.25,9.3,13.91,13.91c6.71,6.65,10.93,6.76,17.85-0.02
			c10.71-10.49,21.23-21.17,31.83-31.77c36.1-36.1,72.17-72.25,108.34-108.29c8.44-8.41,10.12-21.18,19.69-29.03
			c5.17-4.24,8.76-10.42,13.08-15.7c0.59-0.72,1.33-1.32,1.98-2c3.82-4.02,3.21-8.89-1.12-10.62c-6.11-2.44-7.37-16.32-17.71-8.19
			c-11.83,9.3-23.24,19.14-34.83,28.75"/>
		<path class="st29" d="M114.95,86.67c-0.33-1.66-0.07-3.96-1.08-4.87c-26.18-23.83-50-50.04-75.44-74.62
			c-7.48-7.23-8.45-7.27-15.89,0.01c-5.69,5.57-11.18,11.34-16.93,16.85c-4.32,4.13-4.27,7.81,0,11.98
			c21.92,21.47,43.78,43,65.59,64.59c3.83,3.79,7.71,7.65,10.8,12.01c1.64,2.32,3.32,1.6,5.13,1.87"/>
		<path class="st29" d="M136.82,164.18c0.33,1.66,0.08,3.89,1.08,4.88c21.75,21.64,43.62,43.16,65.51,64.67
			c7.52,7.39,11.3,6.81,18.99-0.87c4.62-4.61,7.96-10.87,14.79-13.04"/>
		<path class="st29" d="M10.62,45.93C5.23,54.37,5.16,58.95,12.7,66.7c13.22,13.6,27.06,26.6,40.64,39.85"/>
		<path class="st29" d="M229.23,32.02c8.07-5.49,16.68-10.68,13.02-22.96c-12.28-3.65-17.47,4.96-22.96,13.02"/>
		<path class="st29" d="M220.29,238.71c2.97,3.33,5.95,6.66,8.44,9.45c6.97-6.97,12.93-12.93,18.88-18.88c-3.18-2.76-6.9-6-9.7-8.44
			c0.89-6.83,3.07-11.4-1.62-16.02c-22.73-22.32-45.19-44.91-67.56-67.58c-1.58-1.6-2.84-0.2-4.08-0.89"/>
		<path class="st29" d="M101.04,73.75c-8.94,8.94-17.89,17.89-26.83,26.83"/>
		<path class="st29" d="M174.58,52.89c7.12,8.78,15.07,16.73,23.85,23.85"/>
		<path class="st29" d="M19.56,213.87c-3.51,3.12-7.01,6.23-10,8.89c6.52,6.52,12.48,12.48,19.45,19.45
			c2.49-2.79,5.46-6.12,8.44-9.45"/>
	</g>
</g>
</svg>
