<?xml version="1.0" encoding="utf-8"?>
<!-- Generator: Adobe Illustrator 16.0.0, SVG Export Plug-In . SVG Version: 6.00 Build 0)  -->
<!DOCTYPE svg PUBLIC "-//W3C//DTD SVG 1.1//EN" "http://www.w3.org/Graphics/SVG/1.1/DTD/svg11.dtd">
<svg version="1.1" id="Layer_1" xmlns="http://www.w3.org/2000/svg" xmlns:xlink="http://www.w3.org/1999/xlink" x="0px" y="0px"
	 width="425.2px" height="425.2px" viewBox="0 0 425.2 425.2" enable-background="new 0 0 425.2 425.2" xml:space="preserve">
<g>
	<path fill="#FFFFFF" d="M248.348,202.575c15.729-31.558-33.641-42.001-61.423-42.607c-16.234-0.35-42.53,0.711-72.3,8.125
		c-5.963-28.375,10.656-72.357,21.136-88.426c7.862-12.048,14.46-5.391,11.719-2.115c3.359-1.958,2.103-7.895-3.424-10.374
		c21.071-9.612,30.031-6.898,32.579-1.739c2.156,4.378-0.293,9.438-3.989,8.172c5.062,4.355,17.31-9.924,6.015-22.542
		c-11.871-13.274-39.573,0.275-71.14,14.26c-27.13,12.02-30.906,7.034-31.842,1.012c-1.273-8.206,5.35-11.953,7.029-8.981
		c-0.155-4.844-14.099-4.156-16.596,15.553C65,81.643,67.384,87.932,75.515,89.993c3.121,1.836,4.126,9.336,4.04,13.571
		c-0.367,19.748-1.298,23.599,0.258,23.631c1.901,0.031,0.351-5.175,0.702-23.567c0.129-6.915,0.546-12.297,2.886-12.255
		c2.436,0.049,3.203,5.269,3.148,8.168c-0.204,10.691-1.054,14.071,0.278,14.103c1.528,0.03,0.432-3.924,0.632-14.049
		c0-6.704,2.833-9.127,4.742-9.998c5.378-1.191,11.291-3.345,17.757-6.137c-6.244,8.934-12.611,24.285-20.024,54.222
		c-3.314,13.18-5.711,28.491-2.335,38.865c-15.891,6.071-31.834,14.281-46.651,25.365c0,0-6.272,4.629-3.751,18.864
		c1.81,10.254,8.09,15.592,11.252,12.313c37.918-36.112,79.625-50.896,111.306-54.673
		C217.744,171.492,253.238,182.531,248.348,202.575 M75.2,59.441c-3.819,3.305-5.997,9.921-6.618,14.813
		c-0.681,5.36,0.026,9.282,2.18,11.942c-3.037-2.618-4.112-6.902-3.313-13.115c0.775-6.199,4.052-15.144,10.001-16.662
		c-0.323,0.271-0.626,0.58-0.917,0.912C75.998,57.957,75.563,58.669,75.2,59.441 M146.708,70.861
		c-0.581-0.479-1.269-0.917-2.062-1.271l-2.719-1.223l0.74-0.337l0.836,0.377C144.918,69.044,145.971,69.925,146.708,70.861
		 M178.979,66.024c0.516,1.046,0.809,2.173,0.906,3.283c-0.435,0.693-0.912,1.296-1.409,1.799c0.561-1.957,0.356-4.251-0.638-6.258
		c-0.248-0.507-0.577-1.038-0.987-1.56C177.857,64.154,178.532,65.124,178.979,66.024 M79.805,94.628
		c-0.464-1.619-1.099-3.111-1.95-4.253c0.917,0.716,1.646,1.795,2.228,3.063C79.969,93.81,79.884,94.203,79.805,94.628
		 M87.055,93.597c-0.23-0.683-0.525-1.314-0.884-1.857c0.442,0.301,0.818,0.712,1.152,1.207
		C87.231,93.15,87.136,93.373,87.055,93.597 M109.208,67.736c-11.341,5.034-19.447,7.47-24.773,7.47c-3.833,0-6-1.293-7.262-2.98
		c1.326,1.072,3.252,1.801,6.122,1.801c5.327,0,13.429-2.445,24.767-7.468c1.935-0.855,3.85-1.705,5.741-2.55
		c19.641-8.75,38.2-17.02,50.925-17.02c5.705,0,9.932,1.629,12.932,4.981c0.071,0.08,0.137,0.162,0.198,0.229
		c-2.913-2.702-6.852-4.026-11.99-4.026c-12.729,0-31.28,8.267-50.925,17.019C113.043,66.037,111.128,66.882,109.208,67.736
		 M92.386,139.189c-4.273,16.985-5.073,29.811-2.364,38.126l0.392,1.218l-1.197,0.45c-17.169,6.566-32.76,15.038-46.319,25.185
		c-0.057,0.039-5.552,4.458-3.238,17.563c0.791,4.453,2.396,7.742,4.069,9.765c-2.04-1.767-4.234-5.473-5.204-10.955
		c-2.32-13.098,3.174-17.509,3.23-17.549c13.57-10.161,29.154-18.632,46.323-25.182l1.203-0.454l-0.399-1.228
		c-2.708-8.315-1.909-21.141,2.363-38.123c6.654-26.86,12.951-43.944,19.817-53.77l1.046-1.498l2.813-1.217l-2.715,3.896
		C105.328,95.237,99.039,112.326,92.386,139.189 M247.986,190.952c0.729,0.924,1.323,1.892,1.81,2.878
		c-0.052,0.402-0.108,0.805-0.191,1.213c-0.53-1.849-1.448-3.606-2.757-5.276c-0.217-0.28-0.455-0.556-0.69-0.83
		C246.822,189.585,247.448,190.255,247.986,190.952 M114.729,170.922l-0.283-1.367c-0.006-0.006-0.006-0.018-0.006-0.018
		l0.515-0.134c27.013-6.731,51.094-8.145,66.538-8.145c1.813,0,3.636,0.022,5.406,0.054c21.546,0.471,47.791,6.28,58.3,17.924
		c-11.167-10.855-36.365-16.295-57.167-16.741c-1.77-0.042-3.589-0.053-5.396-0.053c-15.446,0-39.534,1.408-66.544,8.136
		L114.729,170.922z"/>
	<path fill="#FFFFFF" d="M183.153,76.498c0,0-11.102,11.72-24.909,30.328c-6.647,8.968-13.229,18.167-18.131,25.718
		c6.849-24.082,15.457-39.286,15.457-39.286c0.619-1.2-0.811-3.697-4.896-5.082c-8.172-2.766-9.793,0.124-9.793,0.124
		s-13.797,26.644-20.354,58.988c0,0-0.572,3.364,5.057,4.639c3.865,0.911,8.963,1.484,10.299-0.769
		c12.395-22.959,23.761-38.82,32.755-49.488c-11.098,25.832-12.965,50.779,1.406,50.779c7.405,0,17.248-11.098,27.365-31.906
		c-0.413,1.716-0.824,3.439-1.224,5.185c-2.518,10.911,0.432,18.199,5.528,22.171c9.766,7.632,21.441,4.769,20.474-1.896
		c-0.897,4.73-7.768,2.132-8.534-10.229c-0.357-5.75,0.281-12.764,1.575-19.917c5.448,7.302,29.678,38.628,51.537,48.097
		c1.836,1.215,5.4,4.477,5.4,11.509c0,10.128-0.896,14.076,0.631,14.045c1.324-0.023,0.48-3.407,0.273-14.098
		c-0.051-2.893,0.717-8.119,3.15-8.162c2.34-0.052,2.76,5.337,2.889,12.246c0.344,18.397-1.205,23.605,0.701,23.568
		c1.551-0.027,0.631-3.879,0.256-23.624c-0.083-4.276,0.946-11.947,4.122-13.993c12.281-5.447,14.676-27.292,3.646-28.056
		c4.166,2.229,2.697,9.793-8.729,8.494c-19.625-2.226-49.769-31.217-57.385-38.838c8.697-10.418,21.144-22.291,30.991-31.202
		c-6.578,14.903-9.275,29.129-5.958,37.063c1.919,4.599,5.746,6.685,10.789,5.728c5.361-1.021,7.53-4.536,8.059-7.496
		c-0.61,1.262-2.043,2.175-4.588,1.768c-2.553-0.405-5.188-2.555-3.011-11.327c5.923-23.802,18.685-40.388,23.528-46.032
		c2.465-3.283-0.188-5.89-4.51-8.204c-8.203-4.395-12.683,0.792-12.683,0.792s-29.62,34.941-46.916,57.721
		c0.29-1.103,0.579-2.195,0.887-3.27c5.685-19.945,12.524-36.724,18.307-48.147c1.604-3.174,1.291-5.407-4.613-7.689
		c-8.679-3.361-10.267,1.385-10.267,1.385s-7.089,15.513-14.801,39.102c-14.035,37.357-23.046,45.901-26.631,45.643
		c-3.923-0.278-4.624-7.444-0.591-19.342c7.049-20.786,14.01-30.84,15.52-32.891c0.78-1.255-0.375-2.92-3.973-4.283
		C185.201,74.082,183.153,76.498,183.153,76.498 M219.478,149.521c-0.213,0.172-0.445,0.327-0.701,0.465
		c-0.629-0.392-1.231-0.96-1.795-1.669C217.786,148.993,218.634,149.406,219.478,149.521 M260.805,114.245
		c0.67,0.104,1.309,0.138,1.896,0.092c-0.29,0.357-0.626,0.699-1.035,1.033c-1.464-0.298-2.614-1.021-3.419-2.166
		C258.964,113.734,259.81,114.082,260.805,114.245 M199.856,122.048c-0.415,1.706-0.819,3.427-1.222,5.161
		c-1.829,7.946-0.751,14.524,3.018,18.879c-4.682-4.302-6.16-11.36-4.155-20.061c0.396-1.737,0.808-3.459,1.226-5.163l1.26-5.161
		l2.863-5.882L199.856,122.048z M272.549,169.493c-0.657-1.873-1.583-3.309-2.504-4.385c0.902,0.822,1.939,2.001,2.793,3.625
		C272.74,168.98,272.637,169.234,272.549,169.493 M279.805,170.444c-0.243-1.213-0.574-2.23-1.034-2.98
		c0.598,0.346,1.061,0.936,1.425,1.72C280.053,169.595,279.919,170.015,279.805,170.444 M278.957,147.225
		c0.918,0.106,1.81,0.153,2.643,0.153c6.06,0,8.912-2.742,9.551-5.31c0.147-0.593,0.191-1.184,0.142-1.754
		c0.476,0.494,0.858,1.06,1.153,1.648c0,0.425-0.044,0.854-0.149,1.283c-0.646,2.567-3.497,5.316-9.559,5.316
		c-0.838,0-1.725-0.051-2.643-0.154c-19.849-2.251-49.552-30.596-58.189-39.228l-0.871-0.87l0.021-0.023
		C230.021,117.222,259.318,145.005,278.957,147.225 M255.087,77.567c-6.755,15.299-8.976,28.761-5.945,36.003
		c0.359,0.877,0.808,1.644,1.329,2.298c-1.023-0.839-1.854-2.001-2.472-3.474c-3.031-7.244-0.805-20.704,5.945-36.01l0.937-2.106
		l2.762-2.502L255.087,77.567z M218.5,106.677c17.073-22.491,46.569-57.316,46.859-57.654c0.021-0.023,1.9-2.097,5.348-2.097
		c1.774,0,3.69,0.543,5.679,1.61c2.137,1.147,3.566,2.216,4.255,3.199c-0.771-0.641-1.803-1.319-3.111-2.021
		c-1.996-1.065-3.902-1.608-5.679-1.608c-3.455,0-5.338,2.07-5.356,2.095c-0.273,0.319-26.271,31.01-43.58,53.379l-6.287,5.56
		L218.5,106.677z M180.201,134.226c0.084,0,0.175,0,0.257,0c6.521,0,16.632-16.953,27.767-46.571
		c7.59-23.235,14.67-38.812,14.741-38.964l0.036-0.106c0.075-0.172,0.745-1.698,3.546-1.698c1.389,0,3.066,0.379,4.965,1.116
		c2.415,0.938,3.863,1.879,4.37,2.815c-0.76-0.551-1.831-1.089-3.237-1.636c-1.894-0.734-3.569-1.109-4.955-1.109
		c-2.806,0-3.479,1.515-3.548,1.692l-0.042,0.106c-0.072,0.153-7.152,15.726-14.744,38.958
		c-11.123,29.626-21.242,46.584-27.759,46.584c-0.086,0-0.171-0.004-0.253-0.008c-1.345-0.097-2.471-0.767-3.254-1.933
		C178.705,133.906,179.413,134.162,180.201,134.226 M122.999,148.682c-0.005,0.091-0.005,0.448,0.228,0.889
		c-1.368-0.892-1.378-1.898-1.363-2.07c6.305-31.038,19.467-57.116,20.169-58.484c0.12-0.125,0.764-0.693,2.596-0.693
		c1.516,0,3.407,0.381,5.616,1.135c2.316,0.779,3.427,1.854,3.874,2.559c-0.63-0.475-1.517-0.975-2.733-1.386
		c-2.21-0.745-4.1-1.128-5.612-1.128c-1.841,0-2.487,0.572-2.608,0.693C142.464,91.566,129.305,117.648,122.999,148.682
		 M171.008,103.382c-8.573,19.972-11.123,38.27-6.34,45.528c0.129,0.195,0.271,0.371,0.415,0.547
		c-0.583-0.472-1.099-1.042-1.55-1.73c-4.782-7.258-2.232-25.549,6.341-45.526l1.366-3.181l3.355-3.98L171.008,103.382z
		 M186.603,76.728c1.205,0,2.612,0.301,4.186,0.895c2.872,1.083,3.278,2.062,3.312,2.171c0.01,0.034,0.01,0.057,0.01,0.072
		c-0.489-0.317-1.187-0.677-2.191-1.058c-1.569-0.595-2.977-0.894-4.171-0.894c-1.768,0-2.432,0.645-2.465,0.678
		c-0.12,0.133-11.226,11.893-24.821,30.215c-7.597,10.248-13.685,18.88-18.088,25.651l-4.874,7.51l1.488-5.219l2.254-3.466
		c4.396-6.782,10.485-15.407,18.087-25.653c13.59-18.319,24.69-30.091,24.82-30.226C184.172,77.382,184.842,76.728,186.603,76.728"
		/>
	<path fill="#FFFFFF" d="M346.287,129.448c-1.965-5.391-3.889-10.777-5.64-16.098c2.407-2.843,4.919-5.794,7.528-8.874
		c16.592-19.653,20.45-32.008,21.086-38.358c0.259-4.617-3.341-9.641-6.889-13.529c-8.845-9.686-16.347-5.98-16.347-5.98
		s-34.862,15.886-24.575,50.366c1.138,3.82,2.482,7.822,3.941,11.953c-12.352,14.505-24.992,30.608-26.605,47.271
		c0.165,14.226,19.344,28.837,24.619,24.268c3.248-3.257-2.829-13.741,15.509-33.994c5.852,18.003,9.576,35.442,5.348,48.483
		c-5.148,15.912-19.895,10.267-16.099,4.968c-3.064,0.877-4.298,11.616,8.485,11.954c20.743,0.534,26.138-11.375,26.138-11.375
		c5.583-12.407-3.988-37.378-13.776-63.692c8.257-6.057,19.678-8.264,23.773-0.064c5.545,11.097-6.134,20.686-8.28,14.768
		c-0.276,9.611,26.513,3.853,23.601-15.59C385.445,118.217,365.166,114.59,346.287,129.448 M348.31,84.823
		c-2.28,3.811-5.475,8.114-10.344,13.957l-1.707,2.052l-0.481-1.968l1.051-1.267c4.866-5.842,8.068-10.145,10.349-13.956
		c6.579-10.944,8.806-21.783,5.638-27.193l0.301-0.152l0.659,1.015C357.214,62.605,355.023,73.668,348.31,84.823 M351.504,56.869
		c3.193,4.907,0.846,15.558-5.478,26.079c-2.594,4.307-6.188,8.927-10.235,13.788C330.373,74.491,340.885,62.262,351.504,56.869
		 M300.142,156.261c0.833-8.547,3.662-19.91,26.277-46.462l0.502-0.592l-0.257-0.726c-1.613-4.568-2.896-8.45-3.925-11.892
		c-4.109-13.786-1.399-26.158,8.081-36.751c7.15-8.005,15.677-11.957,15.798-12.01c0.029-0.012,6.683-3.175,14.757,5.668
		c0.03,0.032,0.046,0.057,0.064,0.08c-7.582-7.454-13.657-4.586-13.688-4.571c-0.111,0.052-8.637,4.002-15.79,12.007
		c-9.476,10.602-12.196,22.969-8.084,36.757c1.029,3.437,2.316,7.329,3.926,11.884l0.253,0.728l-0.496,0.597
		c-22.618,26.555-25.452,37.916-26.285,46.457c0.088,5.569,3.253,11.147,7.251,15.501
		C304.016,168.448,300.229,162.342,300.142,156.261 M331.221,124.815c1.746,4.686,3.497,9.447,5.167,14.196
		c-13.375,14.653-17.75,24.454-18.624,30.725C311.745,154.136,318.479,141.007,331.221,124.815 M338.517,141.105
		c-13.758,15.069-17.531,24.628-18.281,29.997l-0.719,5.158l-0.962-2.479l0.543-3.861c0.745-5.369,4.528-14.933,18.286-30.002
		l0.54-0.595l-0.264-0.76c-1.588-4.511-3.212-8.942-5.177-14.217l-0.174-0.477l0.479-0.599l0.836,2.251
		c1.96,5.275,3.597,9.716,5.169,14.225l0.264,0.759L338.517,141.105z M346.688,196.55c-3.419,10.551-10.43,11.374-12.504,11.374
		c-2.236,0-4.262-0.772-5.514-2.038c0.083,0.656,0.334,1.625,1.037,2.595c-1.596-1.279-2.059-2.855-2.175-3.77
		c1.255,1.262,3.271,2.029,5.514,2.029c2.068,0,9.085-0.817,12.501-11.364c4.717-14.588-0.378-34.022-5.358-49.318l-0.137-0.42
		l0.551-0.613l0.722,2.212C346.303,162.537,351.408,181.968,346.688,196.55 M374.708,151.145c-0.936,1.513-2.115,2.738-3.358,3.562
		c-0.241,0.012-0.481,0.018-0.712,0.018c-0.868,0-1.642-0.097-2.312-0.282c1.888-0.572,3.843-2.205,5.25-4.479
		c1.21-1.975,3.697-7.259,0.421-13.823c-0.398-0.785-0.861-1.488-1.381-2.125c1.021,0.904,1.87,2.008,2.514,3.309
		C378.406,143.881,375.929,149.171,374.708,151.145 M370.705,122.71c-7.122,0-15.095,3.188-22.441,8.976l-1.462,1.15l-0.592-1.614
		l0.907-0.719c7.355-5.786,15.333-8.978,22.455-8.978c5.625,0,10.182,1.975,13.233,5.507
		C379.809,124.245,375.676,122.71,370.705,122.71"/>
	<path fill="#FFFFFF" d="M190.111,299.866c0.104-1.979-0.096-3.765-0.593-5.324c-2.797-8.774-16.644-11.912-31.088-10.932
		c5.521-5.671,11.506-12.397,17.844-20.398c15.942-19.81,35.614-47.532,23.752-62.127c-11.021-13.553-49.781-11.508-94.701,47.903
		c-30.041,39.729-0.471,49.15,7.308,40.007c-4.924,3.402-16.169-8.731,3.866-33.635c21.916-27.252,50.049-41.025,57.901-35.75
		c6.247,4.2,0.938,24.18-10.945,40.942c-7.959,11.242-15.552,19.805-22.578,26.301c-2.824,0.895-5.486,1.95-7.875,3.147
		c0.785-2.364,1.61-4.704,2.46-6.965c13.479-35.501,21.162-29.753,19.756-25.84c3.279-3.362-4.709-15.936-16.451-10.706
		c-13.516,6.015-27.854,58.013-26.686,71.14c0.063,2.749,3.881,5.063,8.217,5.739c-31.254,21.216-40.833,42.375-40.833,42.375
		s-2.292,4.282,4.042,11.547c4.981,5.728,9.523,6.152,15.43,3.711c57.891-25.854,85.151-56.842,90.286-75.865
		c5.604,1.65,8.588,5.271,9.436,9.331c2.682,12.876-11.197,15.175-10.782,9.261c-1.679,3.91,3.948,7.145,10.193,5.469
		c6.88-1.849,10.883-9.17,9.966-15.663C206.822,304.956,199.594,300.952,190.111,299.866 M107.541,250.979
		c-15.211,20.114-13.761,30.591-11.548,35.039c0.379,0.768,0.837,1.455,1.338,2.065c-0.963-0.854-1.823-1.919-2.481-3.242
		c-2.216-4.459-3.659-14.927,11.548-35.042c37.013-48.941,65.619-54.227,76.202-54.227c7.04,0,12.732,2.15,16.105,6.058
		c-3.447-3.16-8.666-4.876-14.971-4.876C173.151,196.755,144.543,202.037,107.541,250.979 M133.608,291.208
		c2.276-1.147,4.853-2.172,7.676-3.069l0.286-0.091l0.228-0.201c7.679-7.117,15.339-16.039,22.759-26.516
		c9.429-13.311,15.136-29.152,13.575-37.666c-0.276-1.502-0.771-2.743-1.481-3.719c1.334,1.061,2.216,2.695,2.62,4.898
		c1.564,8.523-4.144,24.355-13.578,37.663c-7.415,10.477-15.072,19.401-22.761,26.513l-0.22,0.215l-0.291,0.085
		c-2.824,0.893-5.401,1.927-7.668,3.072l-2.908,1.456l0.697-2.103L133.608,291.208z M146.519,294.875
		c12.18-2.327,23.149-0.734,24.128,2.954c0.212,0.786,0.084,1.83-0.343,3.108c-8.414,1.541-16.771,4.226-23.333,7.313
		c-7.453,3.514-14.151,7.188-20.153,10.895c-0.042-2.751,0.427-6.496,1.267-10.771C132.594,305.731,138.878,301.496,146.519,294.875
		 M114.567,318.693l0.001,0.085c0.007,0.367,0.136,0.737,0.367,1.089c-0.923-0.706-1.492-1.5-1.509-2.263l-0.006-0.088
		c-1.192-13.409,13.388-64.233,25.894-69.798c1.697-0.758,3.391-1.139,5.023-1.139c3.56,0,6.447,1.793,8.256,3.976
		c-1.789-1.614-4.233-2.793-7.114-2.793c-1.637,0-3.327,0.377-5.026,1.138C127.95,254.466,113.36,305.284,114.567,318.693
		 M85.661,377.588c0.083,0.096,0.176,0.194,0.258,0.295c-0.461-0.45-0.92-0.941-1.401-1.479c-5.524-6.346-3.874-10.013-3.869-10.023
		l0.042-0.077c0.093-0.212,9.84-21.103,40.367-41.819l1.629-1.104l2.343,0.367l-2.832,1.919
		c-30.533,20.723-40.278,41.612-40.373,41.816l-0.04,0.078C81.787,367.569,80.131,371.236,85.661,377.588 M150.8,313.102
		c6.146-2.953,11.625-5.063,16.477-6.496c-4.713,7.019-14.146,16.978-27.791,28.155c-11.307,9.261-38.34,25.692-40.689,23.937
		C97.221,357.515,104.388,335.368,150.8,313.102 M169.536,308.537c-5.193,7.728-15.418,18.09-28.06,28.444
		c-10.085,8.26-35.827,24.366-41.004,24.366c-0.536,0-0.989-0.132-1.34-0.396c-0.296-0.226-0.5-0.527-0.622-0.913
		c0.252,0.088,0.518,0.132,0.826,0.132c5.178,0,30.916-16.104,41.007-24.374c12.638-10.344,22.868-20.719,28.05-28.441l0.811-1.207
		l2.413-0.712L169.536,308.537z M172.709,302.548l-0.252,0.748l-0.774,0.145c-8.001,1.469-16.383,4.097-22.997,7.221
		c-7.021,3.305-13.759,6.943-20.02,10.81l-2.021,1.246l-0.032-1.856l0.913-0.566c6.268-3.874,13.003-7.51,20.018-10.817
		c6.617-3.119,14.998-5.746,23-7.213l0.781-0.145l0.252-0.753c0.529-1.557,0.653-2.826,0.367-3.89
		c-0.104-0.397-0.281-0.771-0.508-1.106c0.817,0.615,1.403,1.365,1.651,2.283C173.366,299.714,173.242,300.991,172.709,302.548
		 M164.574,285.959c-1.609,0-3.265,0.06-4.925,0.17l-3.513,0.246l1.315-1.353l1.064-0.07c1.659-0.11,3.315-0.17,4.922-0.17
		c11.082,0,19.313,2.567,23.026,7.006C182.35,288.084,174.64,285.959,164.574,285.959 M199.139,325.949
		c-0.718,0.882-1.597,1.624-2.554,2.188c-0.627,0.105-1.261,0.165-1.883,0.165c-0.766,0-1.516-0.083-2.194-0.248
		c2.049-0.347,4.07-1.539,5.49-3.284c1.517-1.864,3.096-5.219,1.979-10.582c-0.447-2.131-1.375-4.021-2.726-5.622
		c1.979,1.823,3.304,4.122,3.86,6.806C202.229,320.73,200.656,324.077,199.139,325.949 M191.096,302.38l-1.259-0.137l0.056-1.04
		l0.063,0.003c6.484,0.739,11.119,2.741,13.879,5.972C201.011,304.635,196.75,303.034,191.096,302.38"/>
	<path fill="#FFFFFF" d="M334.815,224.413c0,0-14.632,11.547-33.794,16.628c6.478-9.995,13.579-21.534,21.365-34.832
		c0.859-1.254,0.734-3.53-2.594-6.583c-3.99-3.654-6.561-1.974-6.561-1.974c-6.568,4.198-22.132,16.194-32.181,40.63
		c0,0-1.751,4.458,3.987,12.658c0,0,1.445,0.07,4.257-0.303c-16.163,27.126-32.766,36.035-37.716,34.84
		c-3.193-0.778-3.84-6.356-2.503-13.783c4.265-0.621,9.698-3.668,14.596-9.957c11.286-14.492,12.033-23.838,12.038-28.167
		c0.008-3.243-2.746-6.854-9.493-8.899c-6.228-1.888-10.634,0.034-13.052,2.721c-3.442,3.836-6.46,9.4-10.083,17.102
		c-0.902,1.93-1.748,3.861-2.54,5.783c-13.4,27.061-26.756,36.381-31.708,35.184c-3.196-0.769-3.84-6.354-2.502-13.787
		c4.262-0.61,9.697-3.661,14.592-9.945c11.29-14.493,12.03-23.844,12.046-28.168c0-3.248-2.747-6.853-9.494-8.906
		c-6.229-1.88-10.639,0.036-13.06,2.726c-3.439,3.838-6.461,9.397-10.075,17.1c-13.051,27.769-14.616,56.277,0.777,56.277
		c7.404,0,20.71-11.106,33.49-31.928c-3.977,17.938-1.53,31.938,9.248,31.938c9.295,0,24.635-11.234,51.618-51.342
		c5.669-1.404,13.587-4.094,23.652-9.247c-19.22,23.127-52.089,67.426-35.734,82.379c8.275,7.559,29.722-1.231,37.818-23.75
		c5.653-15.727-4.566-16.728-5.782-12.744c1.42-1.909,4.888-0.13,3.01,6.548c-1.872,6.682-8.955,13.928-13.187,12.829
		c-4.274-1.112-3.648-13.471,6.51-31.641c11.482-20.554,23.654-33.091,29.885-38.915c4.143-3.869,2.545-4.898-0.078-8.275
		C337.666,221.565,334.815,224.413,334.815,224.413 M224.99,249.065c-7.504,16.51-13.511,17.795-15.179,17.795
		c-0.314,0-0.623-0.039-0.904-0.116l-1.31-0.383l0.243-0.791c0.258,0.075,0.541,0.111,0.838,0.111c1.662,0,7.672-1.28,15.173-17.795
		c2.798-6.173,3.587-11.079,2.167-13.522c0.425,0.245,0.789,0.607,1.081,1.065C228.601,237.842,227.835,242.803,224.99,249.065
		 M208.15,264.264c0.243-0.799,0.503-1.603,0.781-2.418c2.097-6.183,4.168-11.425,6.125-15.779
		c1.943-4.324,5.289-12.031,8.361-11.943c2.437,0.073,3.031,4.782-0.788,13.205C215.889,262.154,210.082,264.83,208.15,264.264
		 M195.185,296.722c0.191,0.3,0.394,0.574,0.601,0.838c-0.643-0.551-1.229-1.21-1.738-2.02c-5.397-8.5-2.24-29.737,7.515-50.488
		c3.43-7.298,6.415-12.938,9.862-16.768c1.014-1.13,3.312-3.036,7.263-3.036c1.386,0,2.868,0.235,4.398,0.698
		c3.383,1.029,5.901,2.555,7.296,4.321c-1.456-1.265-3.551-2.346-6.157-3.137c-1.536-0.466-3.013-0.703-4.396-0.703
		c-3.948,0-6.246,1.9-7.266,3.03c-3.445,3.835-6.437,9.48-9.863,16.778C192.951,266.984,189.792,288.214,195.185,296.722
		 M267.743,249.087c-7.507,16.512-13.52,17.792-15.183,17.792c-0.32,0-0.623-0.042-0.897-0.119l-1.318-0.394l0.243-0.771
		c0.261,0.067,0.54,0.104,0.832,0.104c1.671,0,7.673-1.28,15.181-17.803c2.803-6.167,3.582-11.078,2.162-13.524
		c0.429,0.248,0.791,0.612,1.081,1.07C271.349,237.853,270.572,242.823,267.743,249.087 M250.893,264.282
		c0.248-0.799,0.512-1.608,0.776-2.426c2.104-6.186,4.184-11.42,6.134-15.77c1.942-4.335,5.286-12.041,8.358-11.953
		c2.436,0.072,3.036,4.787-0.792,13.207C258.636,262.177,252.838,264.846,250.893,264.282 M238.544,297.586
		c-0.396-0.334-0.752-0.698-1.104-1.125c-3.77-4.704-4.323-14.671-1.51-27.332l0.683-3.099l2.198-3.568l-1.743,7.841
		C234.262,282.933,234.808,292.863,238.544,297.586 M242.928,251.968l-0.041,0.082c-1.787,3.613-3.59,6.926-5.374,9.967l0.155-0.734
		l-4.205,6.848c-0.678,1.102-1.355,2.162-2.022,3.207c-8.275,11.407-15.869,16.747-20.56,16.747c-0.432,0-0.846-0.041-1.227-0.134
		c-1.103-0.271-1.985-0.91-2.654-1.888c0.451,0.325,0.952,0.571,1.519,0.713c0.379,0.086,0.788,0.135,1.222,0.135
		c6.825,0,19.754-11.277,32.013-36.034l0.038-0.083c0.817-1.985,1.658-3.915,2.517-5.723c3.429-7.293,6.416-12.94,9.863-16.775
		c1.014-1.133,3.311-3.031,7.262-3.031c1.384,0,2.865,0.232,4.396,0.698c3.383,1.029,5.906,2.545,7.303,4.324
		c-1.469-1.265-3.553-2.354-6.168-3.147c-1.53-0.461-3.008-0.693-4.394-0.693c-3.951,0-6.245,1.898-7.265,3.031
		c-3.449,3.835-6.434,9.478-9.86,16.775C244.596,248.063,243.745,249.986,242.928,251.968 M304.921,306.743
		c0.393,0.105,0.812,0.157,1.241,0.157c4.35,0,11.472-6.424,13.582-13.929c1.097-3.915,0.455-6.126-0.209-7.24
		c0.338,0.181,0.705,0.48,1.036,0.948c0.058,0.078,0.114,0.166,0.171,0.271c-0.021-0.015-0.046-0.036-0.067-0.041
		c0.66,1.117,1.299,3.323,0.207,7.241c-2.115,7.502-9.227,13.929-13.582,13.929c-0.429,0-0.848-0.047-1.246-0.152
		c-0.688-0.179-1.583-0.64-2.294-1.71C304.166,306.487,304.566,306.652,304.921,306.743 M291.595,252.505
		c-0.398,0.673-0.794,1.319-1.197,1.966c-4.494,6.485-8.751,12.273-12.76,17.355c-10.344,11.588-19.452,16.279-23.947,16.279
		c-0.465,0-0.899-0.047-1.293-0.146c-1.104-0.261-1.98-0.905-2.647-1.883c0.449,0.326,0.951,0.574,1.515,0.709
		c0.389,0.091,0.828,0.143,1.294,0.143c6.444,0,22.441-9.67,37.903-35.605l0.559-0.943l2.005-0.274L291.595,252.505z
		 M283.441,239.979c0,0-1.104,3.369,2.687,9.604c-0.137,0.005-0.267,0.013-0.38,0.013c-4.696-6.998-3.445-10.799-3.445-10.799
		c9.951-24.211,25.458-36.04,31.644-39.997c0.025-0.014,1.825-1.034,4.935,1.815c0.491,0.447,0.892,0.874,1.23,1.274
		c-0.033-0.031-0.063-0.063-0.093-0.089c-3.114-2.855-4.911-1.833-4.939-1.811C308.893,203.93,293.387,215.763,283.441,239.979
		 M321.307,242.215c-15.698,18.902-50.082,63.744-36.909,79.419c-0.028-0.029-0.057-0.044-0.09-0.075
		c-15.938-14.564,19.772-61.166,35.86-80.518l1.655-1.991l3.683-1.891L321.307,242.215z M338.095,226.143
		c-0.727,0-1.189,0.398-1.189,0.398l-0.119,0.108c-0.607,0.481-15.071,11.78-34.286,16.872l-3.375,0.892l1.156-1.787l1.081-0.279
		c19.215-5.1,33.676-16.4,34.286-16.874l0.119-0.105c0-0.008,0.46-0.414,1.189-0.414c0.993,0,2.123,0.75,3.287,2.159
		C339.486,226.474,338.757,226.143,338.095,226.143"/>
</g>
</svg>
